<?xml version="1.0" standalone="no"?>
<svg version="1.0" xmlns="http://www.w3.org/2000/svg"
 width="512.000000pt" height="512.000000pt" viewBox="0 0 512.000000 512.000000"
 preserveAspectRatio="xMidYMid meet">

<g transform="translate(0.000000,512.000000) scale(0.100000,-0.100000)"
fill="#000000" stroke="none">
<path d="M382 5109 c-55 -10 -135 -48 -189 -87 -122 -91 -136 -270 -28 -377
68 -68 109 -77 337 -73 177 3 197 5 234 25 154 82 181 292 53 407 -102 93
-262 134 -407 105z m242 -173 c31 -15 65 -39 76 -53 28 -36 27 -94 -4 -130
l-24 -28 -172 -3 c-190 -4 -221 3 -245 49 -40 77 10 143 139 185 63 21 165 12
230 -20z"/>
<path d="M1925 5105 c-145 -32 -257 -95 -349 -196 -102 -113 -166 -276 -166
-424 0 -88 60 -341 95 -402 27 -45 74 -79 124 -89 22 -5 33 -14 38 -32 10 -42
100 -167 146 -203 l43 -34 -168 -164 c-165 -161 -168 -163 -168 -130 0 55 -51
149 -109 201 -116 104 -286 110 -413 15 -33 -25 -33 -25 -103 -10 -166 36
-385 -51 -451 -178 -23 -45 -29 -130 -13 -186 17 -62 96 -143 155 -161 23 -7
95 -12 162 -12 l120 0 3 -278 4 -277 33 -67 c78 -158 246 -227 409 -167 52 20
81 44 290 252 l233 231 2 -1160 3 -1159 28 -56 c32 -66 99 -132 165 -162 72
-33 200 -31 267 5 68 35 122 92 154 158 25 52 26 65 29 234 3 173 3 179 -19
202 -31 34 -81 32 -108 -2 -19 -24 -21 -40 -21 -180 0 -163 -6 -193 -48 -238
-68 -73 -188 -73 -254 1 -49 54 -48 22 -48 1090 l0 998 589 238 c622 250 644
257 709 223 38 -20 77 -65 91 -105 7 -23 11 -165 11 -446 0 -438 -2 -457 -49
-508 -42 -46 -77 -60 -141 -55 -69 5 -110 32 -139 91 -19 40 -21 61 -21 244
l0 201 57 24 c41 17 59 31 68 52 17 41 2 81 -37 97 -29 12 -50 5 -387 -130
-240 -97 -363 -151 -378 -168 l-23 -24 0 -588 c0 -655 -3 -624 67 -637 26 -5
37 -1 57 19 l26 26 0 554 0 554 190 77 c104 42 194 76 199 76 6 0 11 -78 13
-192 3 -188 4 -194 31 -246 l27 -54 -26 -31 c-38 -46 -54 -89 -54 -149 0 -75
15 -118 56 -166 68 -79 92 -87 312 -90 227 -4 269 5 337 73 111 111 94 290
-36 381 l-37 26 16 36 c15 33 17 90 17 507 l0 470 -27 57 c-57 122 -164 188
-301 188 -65 -1 -88 -7 -242 -69 l-170 -69 -3 171 c-1 94 0 177 2 184 4 10 81
13 365 13 465 0 416 -16 651 215 l175 172 50 -26 c46 -24 60 -26 208 -30 203
-4 252 2 318 42 72 43 109 104 116 189 10 122 -51 207 -194 275 -64 31 -87 37
-169 41 l-94 5 -22 44 c-28 55 -95 118 -156 146 -35 16 -67 22 -127 22 -136 0
-150 -8 -386 -241 l-205 -204 -103 0 c-70 0 -111 -5 -130 -15 -46 -23 -54 -66
-20 -109 20 -26 21 -26 167 -26 l147 0 105 105 105 105 125 -125 125 -125
-135 -136 c-74 -74 -152 -144 -172 -155 -35 -18 -62 -19 -437 -19 l-400 0 -28
-24 -28 -24 -5 -268 -5 -267 -305 -124 c-168 -67 -313 -125 -322 -129 -17 -5
-18 7 -18 151 0 152 -1 156 -25 180 -51 52 -54 50 -379 -274 -262 -260 -306
-300 -339 -306 -89 -17 -166 18 -203 92 -18 35 -19 65 -19 408 l0 370 173 3
172 2 0 -36 c0 -32 -9 -46 -60 -100 -66 -69 -73 -94 -39 -138 14 -18 30 -26
51 -26 27 0 68 37 327 293 306 301 379 362 528 437 165 82 319 119 537 127
132 5 150 8 167 26 24 26 24 68 0 98 -18 22 -28 24 -123 27 l-103 4 3 97 c3
87 0 113 -37 256 -23 88 -38 161 -34 163 34 12 60 32 71 55 29 60 -74 257
-186 357 -142 128 -362 186 -547 145z m227 -146 c79 -17 172 -66 231 -123 52
-49 115 -142 104 -152 -3 -3 -62 -20 -133 -38 -85 -22 -132 -39 -141 -52 -11
-14 -13 -37 -8 -95 5 -50 3 -90 -6 -117 -14 -48 -68 -116 -108 -136 -15 -8
-115 -37 -222 -65 -244 -64 -229 -70 -276 115 -36 144 -41 220 -18 309 65 246
325 406 577 354z m321 -601 c53 -215 49 -340 -11 -354 -161 -36 -273 -77 -389
-139 l-84 -46 -33 21 c-41 25 -109 97 -130 138 -15 28 -15 31 2 36 9 3 77 21
149 40 162 43 214 69 276 135 63 67 97 144 106 234 6 73 12 81 66 86 6 1 27
-68 48 -151z m1522 -51 c46 -26 80 -72 89 -122 11 -59 -10 -110 -74 -178 l-59
-62 -125 125 -126 125 48 48 c26 27 63 57 82 67 48 26 116 25 165 -3z m410
-218 c73 -27 125 -76 125 -117 0 -47 -19 -79 -57 -97 -28 -13 -63 -16 -198
-13 -90 2 -167 6 -171 10 -4 4 12 28 35 53 43 46 91 135 91 168 0 25 102 23
175 -4z m-3162 -530 c37 -10 107 -62 107 -80 0 -5 -67 -9 -150 -9 -82 0 -150
4 -150 8 0 17 59 64 96 77 48 17 50 17 97 4z m-357 -72 c1 -1 -2 -22 -6 -47
-5 -25 -9 -78 -10 -117 l0 -73 -121 0 c-120 0 -121 0 -150 29 -94 95 57 233
236 215 27 -3 50 -6 51 -7z m2575 -1756 c43 -42 49 -73 25 -120 -24 -45 -52
-51 -237 -51 l-171 0 -29 29 c-37 38 -40 97 -6 135 22 26 22 26 67 10 62 -22
182 -16 235 12 58 31 73 29 116 -15z"/>
<path d="M4523 2965 c-208 -56 -311 -201 -261 -366 15 -51 69 -114 122 -142
37 -20 58 -22 230 -25 209 -4 252 3 316 49 113 82 131 257 37 363 -96 107
-294 161 -444 121z m214 -154 c122 -42 167 -105 128 -180 -24 -46 -55 -53
-245 -49 l-172 3 -24 28 c-26 30 -32 83 -14 117 26 48 142 99 225 99 28 0 73
-8 102 -18z"/>
<path d="M1165 1976 c-106 -34 -186 -90 -226 -160 -24 -42 -29 -62 -29 -116 1
-109 45 -184 135 -226 47 -23 61 -24 253 -24 224 0 250 5 310 63 56 53 76 102
76 182 0 52 -5 80 -21 111 -38 71 -130 138 -232 168 -65 19 -209 20 -266 2z
m272 -166 c80 -40 98 -61 98 -117 0 -37 -5 -49 -28 -69 -27 -23 -32 -24 -210
-24 -203 0 -220 5 -235 63 -12 46 -4 73 31 107 46 45 118 69 208 69 65 1 84
-3 136 -29z"/>
<path d="M3971 539 c-113 -22 -238 -108 -274 -188 -24 -54 -25 -141 -2 -199
23 -57 101 -126 159 -141 70 -17 382 -14 437 4 102 35 164 123 164 235 -1 110
-58 189 -179 248 -100 49 -199 62 -305 41z m227 -169 c61 -26 112 -79 112
-116 0 -35 -28 -80 -57 -93 -14 -7 -92 -11 -191 -11 -187 0 -202 5 -228 66
-27 65 22 128 131 167 65 23 161 18 233 -13z"/>
</g>
</svg>
