<?xml version="1.0" standalone="no"?>
<svg version="1.0" xmlns="http://www.w3.org/2000/svg"
 width="512.000000pt" height="512.000000pt" viewBox="0 0 512.000000 512.000000"
 preserveAspectRatio="xMidYMid meet">

<g transform="translate(0.000000,512.000000) scale(0.100000,-0.100000)"
fill="#000000" stroke="none">
<path d="M2805 4488 c-168 -205 -176 -215 -272 -343 -108 -143 -224 -319 -263
-396 -16 -31 -38 -93 -49 -139 -12 -46 -33 -104 -48 -129 -37 -64 -134 -158
-226 -220 -83 -56 -246 -184 -313 -247 -40 -38 -42 -42 -48 -119 -4 -44 -18
-152 -31 -241 -27 -180 -24 -230 20 -352 l24 -66 -58 -156 c-77 -203 -95 -278
-87 -356 3 -33 31 -149 60 -257 l55 -197 -6 -279 c-5 -251 -4 -282 11 -305 11
-18 25 -26 46 -26 56 0 56 2 63 325 6 291 5 298 -18 388 -14 51 -25 96 -25
100 0 5 19 -8 42 -27 48 -41 115 -76 146 -76 41 0 73 21 296 200 289 230 377
296 418 309 37 11 112 22 373 51 99 11 195 23 213 26 l32 6 0 -140 c0 -258 38
-338 159 -336 56 1 118 31 171 84 48 48 90 128 90 173 0 56 -46 132 -124 204
l-73 66 37 37 c20 20 79 93 130 161 l93 124 -7 -55 c-3 -30 -8 -107 -12 -170
-5 -99 -3 -120 13 -149 28 -54 64 -74 139 -79 l65 -4 44 46 c114 119 265 579
265 807 0 137 -19 454 -31 524 -6 33 -19 79 -29 102 -16 37 -28 47 -106 86
l-88 44 43 23 c65 32 133 107 172 185 32 66 34 75 34 180 0 94 -3 117 -23 160
-46 100 -138 162 -274 185 -118 20 -198 -2 -265 -72 -67 -69 -123 -243 -123
-378 0 -33 -3 -60 -6 -60 -3 0 -63 30 -132 66 l-127 66 -90 115 c-49 64 -138
165 -198 225 l-107 110 77 94 c135 162 137 167 122 200 -11 23 -22 30 -50 32
-35 3 -39 0 -144 -130z m55 -427 c45 -49 122 -140 172 -202 49 -63 101 -120
114 -127 l24 -13 -31 -52 c-16 -29 -35 -62 -41 -74 -6 -13 -17 -23 -23 -23
-18 0 -160 152 -199 213 -49 76 -142 266 -156 316 -6 24 -9 55 -5 68 l6 24 29
-21 c16 -12 66 -61 110 -109z m1005 34 c116 -31 164 -96 165 -220 0 -167 -125
-297 -271 -281 -74 7 -134 32 -159 64 -25 31 -27 120 -5 228 25 121 69 197
125 217 28 10 86 7 145 -8z m-1245 -69 c0 -29 143 -293 197 -364 90 -118 251
-257 466 -401 l79 -53 -7 -36 c-15 -81 -88 -262 -105 -262 -6 0 -61 11 -121
25 -201 45 -403 78 -489 79 -85 1 -85 1 -285 -83 -379 -159 -353 -153 -556
-129 l-101 11 7 51 c3 28 12 57 18 65 22 26 211 176 313 248 55 39 125 98 156
131 86 94 113 147 157 317 14 54 84 174 178 305 76 107 93 124 93 96z m1018
-544 c275 -139 345 -177 352 -197 8 -21 30 -207 30 -252 0 -10 -37 -21 -140
-38 l-35 -6 -19 92 c-25 124 -60 161 -114 123 -28 -19 -28 -27 4 -181 43 -213
32 -318 -46 -434 -42 -62 -165 -236 -192 -272 -11 -15 -13 7 -13 140 0 177
-17 255 -74 345 l-30 47 34 75 c51 111 75 200 75 273 0 60 -2 67 -33 97 -18
17 -81 64 -140 104 -60 40 -110 79 -113 86 -6 16 88 177 101 174 6 -2 164 -81
353 -176z m-918 -593 c35 -5 66 -12 68 -14 5 -4 -58 -238 -66 -247 -4 -4 -50
2 -102 13 -52 11 -110 18 -128 15 -19 -3 -151 -55 -295 -117 l-261 -112 -31
34 c-25 28 -145 211 -145 222 0 2 26 0 58 -4 31 -4 93 -8 137 -8 76 -1 87 2
240 65 452 185 407 172 525 153z m1308 -124 c2 -117 0 -141 -28 -253 -53 -211
-151 -466 -193 -500 -9 -8 -26 -12 -39 -10 -22 3 -23 6 -22 103 2 128 25 278
76 480 23 91 41 187 42 222 l1 63 35 6 c19 3 51 10 70 14 19 4 40 7 45 6 6 -2
11 -56 13 -131z m-810 28 c107 -19 159 -258 118 -541 -9 -62 -19 -118 -22
-126 -3 -7 -40 -21 -82 -30 -80 -17 -312 -49 -317 -44 -5 7 -77 309 -74 312 2
1 47 20 99 41 111 45 130 59 130 95 0 41 -26 56 -130 77 -52 11 -94 24 -94 29
1 5 16 64 34 130 l32 121 137 -29 c75 -16 151 -32 169 -35z m-1374 -441 c71
-62 91 -59 368 62 106 46 217 94 246 105 l52 21 133 -25 c72 -14 139 -28 147
-31 8 -3 -85 -47 -205 -98 -272 -115 -288 -123 -356 -182 -54 -49 -320 -286
-371 -332 l-26 -24 -116 18 c-64 11 -116 23 -116 27 0 4 29 84 64 178 l65 170
-30 75 c-31 77 -51 167 -44 201 17 81 10 84 85 -29 38 -58 85 -119 104 -136z
m914 -174 c18 -72 29 -134 25 -138 -4 -4 -57 -12 -118 -19 -60 -7 -128 -17
-150 -22 -51 -13 -143 -79 -445 -319 l-241 -191 -34 21 c-45 28 -164 156 -193
209 l-23 41 31 0 c17 0 76 -9 130 -21 109 -22 112 -22 183 34 21 16 118 102
215 189 97 88 194 172 215 186 37 25 342 161 362 162 6 0 25 -59 43 -132z
m635 -339 c37 -37 67 -75 67 -85 0 -35 -50 -103 -96 -130 -42 -25 -47 -26 -62
-10 -14 14 -18 43 -21 167 l-3 151 23 -13 c13 -7 54 -43 92 -80z"/>
</g>
</svg>
